<?xml version="1.0" encoding="UTF-8" standalone="no"?>
<svg width="30px" height="30px" viewBox="0 0 30 30" version="1.1" xmlns="http://www.w3.org/2000/svg" xmlns:xlink="http://www.w3.org/1999/xlink" xmlns:sketch="http://www.bohemiancoding.com/sketch/ns">
    <!-- Generator: Sketch 3.4.4 (17249) - http://www.bohemiancoding.com/sketch -->
    <title>Shape</title>
    <desc>Created with Sketch.</desc>
    <defs></defs>
    <g id="Page-1" stroke="none" stroke-width="1" fill="none" fill-rule="evenodd" sketch:type="MSPage">
        <g id="cross" sketch:type="MSLayerGroup" fill="#FFFFFF">
            <path d="M19.6433355,15.0001563 L29.8165212,4.82681704 C30.0607427,4.58259936 30.0607427,4.18672281 29.8165212,3.94250513 L26.0581368,0.183241435 C25.940873,0.0659794244 25.7813941,0 25.6159739,0 C25.450241,0 25.2910749,0.0659794244 25.1738111,0.183241435 L15,10.3568934 L4.82618893,0.183241435 C4.59166124,-0.0512825858 4.17639088,-0.0512825858 3.94186319,0.183241435 L0.183166124,3.94250513 C-0.0610553746,4.18672281 -0.0610553746,4.58259936 0.183166124,4.82681704 L10.3566645,15.0001563 L0.183166124,25.1734957 C-0.0610553746,25.4177133 -0.0610553746,25.8135899 0.183166124,26.0578076 L3.94186319,29.8167586 C4.05912704,29.9340206 4.21829316,30 4.38402606,30 C4.54975896,30 4.70892508,29.9340206 4.82618893,29.8167586 L15,19.6431066 L25.1738111,29.8167586 C25.2910749,29.9340206 25.450241,30 25.6159739,30 C25.7813941,30 25.940873,29.9340206 26.0581368,29.8167586 L29.8168339,26.0578076 C30.0610554,25.8135899 30.0610554,25.4174006 29.8168339,25.1734957 L19.6433355,15.0001563 L19.6433355,15.0001563 Z" id="Shape" sketch:type="MSShapeGroup"></path>
        </g>
    </g>
</svg>