<?xml version="1.0" encoding="UTF-8" standalone="no"?>
<svg width="106px" height="66px" viewBox="0 0 106 66" version="1.1" xmlns="http://www.w3.org/2000/svg" xmlns:xlink="http://www.w3.org/1999/xlink" xmlns:sketch="http://www.bohemiancoding.com/sketch/ns">
    <!-- Generator: Sketch 3.4.4 (17249) - http://www.bohemiancoding.com/sketch -->
    <title>logo (1)</title>
    <desc>Created with Sketch.</desc>
    <defs></defs>
    <g id="Page-1" stroke="none" stroke-width="1" fill="none" fill-rule="evenodd" sketch:type="MSPage">
        <g id="Desktop-HD" sketch:type="MSArtboardGroup" transform="translate(-672.000000, -12.000000)">
            <g id="Rectangle-9-+-ГЛАВНАЯ-+-+7-(938)-155-31-15-+-logo-(1)" sketch:type="MSLayerGroup" transform="translate(5.000000, -12.000000)">
                <g id="logo-(1)" transform="translate(667.500000, 23.500000)" sketch:type="MSShapeGroup">
                    <path d="M13.0958333,62.7329302 C12.7691667,62.8819535 12.3925,62.9983256 11.965,63.0803721 C11.5375,63.1615814 11.1233333,63.2235349 10.7225,63.2637209 C10.3225,63.3047442 9.9725,63.3332093 9.67333333,63.3457674 C9.375,63.36 9.185,63.3658605 9.10416667,63.3658605 C7.895,63.3658605 6.745,63.2026047 5.65166667,62.876093 C4.55916667,62.547907 3.59166667,62.0573023 2.75,61.4026047 C1.9075,60.747907 1.23833333,59.9291163 0.744166667,58.9470698 C0.2475,57.9650233 0,56.8188837 0,55.5103256 C0,54.2963721 0.264166667,53.2180465 0.794166667,52.276186 C1.32416667,51.3351628 2.00583333,50.5414884 2.84083333,49.8934884 C3.67583333,49.2454884 4.6125,48.7515349 5.65166667,48.4099535 C6.69,48.0692093 7.71916667,47.8984186 8.73666667,47.8984186 C8.91333333,47.8984186 9.16083333,47.9017674 9.48083333,47.9084651 C9.79916667,47.9151628 10.1591667,47.9453023 10.56,47.9980465 C10.96,48.0507907 11.3808333,48.1269767 11.8233333,48.2266047 C12.2641667,48.3253953 12.7016667,48.4618605 13.1366667,48.6351628 L13.7675,51.9496744 L13.5233333,51.9906977 C13.4008333,51.4992558 13.1933333,51.0463256 12.9016667,50.6302326 C12.61,50.2141395 12.2533333,49.8524651 11.8325,49.5460465 C11.4116667,49.2387907 10.9258333,48.9993488 10.3766667,48.8293953 C9.82666667,48.6586047 9.2325,48.5740465 8.595,48.5740465 C7.71166667,48.5740465 6.91416667,48.7448372 6.20083333,49.0864186 C5.48916667,49.4271628 4.87416667,49.891814 4.35833333,50.4795349 C3.84166667,51.0664186 3.445,51.7529302 3.1675,52.5382326 C2.88833333,53.3235349 2.75,54.159907 2.75,55.048186 C2.75,56.263814 2.94583333,57.3463256 3.34,58.2965581 C3.73333333,59.2459535 4.24666667,60.052186 4.87833333,60.7144186 C5.50916667,61.3766512 6.20833333,61.8814884 6.975,62.2306047 C7.7425,62.5788837 8.50583333,62.7530233 9.26666667,62.7530233 C9.76916667,62.7530233 10.2575,62.6810233 10.7333333,62.5378605 C11.2075,62.3946977 11.6491667,62.1803721 12.0566667,61.8940465 C12.4641667,61.6068837 12.8275,61.2485581 13.1458333,60.819907 C13.465,60.3895814 13.7266667,59.8956279 13.9308333,59.3355349 L14.0733333,59.4996279 L13.0958333,62.7329302" id="Fill-1" fill="#000000"></path>
                    <path d="M36.0891667,55.7556279 L36.1091667,58.9470698 L36.1091667,60.2154419 C36.1091667,60.6248372 36.1225,60.9454884 36.15,61.1773953 C36.1766667,61.4637209 36.2316667,61.6922791 36.3125,61.8630698 C36.3941667,62.0338605 36.53,62.1736744 36.7191667,62.2825116 C36.91,62.3913488 37.1608333,62.4767442 37.4733333,62.5378605 C37.7858333,62.599814 38.1858333,62.6508837 38.675,62.691907 C38.6208333,62.964 38.5833333,63.2779535 38.5625,63.6329302 C38.5425,63.9870698 38.525,64.3453953 38.5125,64.7070698 C38.4983333,65.067907 38.4916667,65.4053023 38.4916667,65.7192558 C38.4916667,66.0332093 38.485,66.2785116 38.4716667,66.456 L38.2875,66.456 C38.2608333,66.0876279 38.2133333,65.7092093 38.145,65.319907 C38.0775,64.9322791 37.9483333,64.5773023 37.7591667,64.2566512 C37.5683333,63.936 37.3008333,63.6664186 36.9541667,63.4487442 C36.6083333,63.2293953 36.1358333,63.1071628 35.5383333,63.0803721 C35.2525,63.0661395 34.8408333,63.056093 34.3033333,63.0502326 C33.7666667,63.0426977 33.2116667,63.036 32.6408333,63.0284651 C32.0691667,63.0217674 31.5291667,63.0192558 31.02,63.0192558 L29.9275,63.0192558 L24.7466667,63.0594419 C24.515,63.0594419 24.2433333,63.0661395 23.9308333,63.0803721 C23.6183333,63.0929302 23.295,63.1113488 22.9633333,63.1314419 C22.63,63.1523721 22.3075,63.1649302 21.9958333,63.1724651 C21.6833333,63.1791628 21.4183333,63.1825116 21.2008333,63.1825116 L21.2008333,63.0594419 C21.5816667,63.0058605 21.9175,62.943907 22.2091667,62.876093 C22.5008333,62.8082791 22.7458333,62.7086512 22.9425,62.5788837 C23.1391667,62.4499535 23.2916667,62.275814 23.4008333,62.0573023 C23.5091667,61.8387907 23.57,61.5457674 23.5841667,61.1773953 C23.5966667,60.8902326 23.6075,60.5637209 23.6141667,60.1945116 C23.6216667,59.8269767 23.625,59.4452093 23.625,59.0492093 L23.625,57.8729302 L23.625,56.7987907 L23.625,55.3663256 L23.625,53.392186 L23.625,51.448186 C23.625,50.8420465 23.6175,50.3941395 23.6041667,50.1086512 C23.5908333,49.7394419 23.5291667,49.4472558 23.4208333,49.2287442 C23.3125,49.0102326 23.1633333,48.836093 22.9725,48.7063256 C22.7825,48.5773953 22.5416667,48.4777674 22.25,48.4099535 C21.9583333,48.3413023 21.6216667,48.280186 21.2416667,48.2257674 L21.2416667,48.1026977 C21.4591667,48.1169302 21.7208333,48.1303256 22.0258333,48.1437209 C22.3316667,48.1579535 22.6433333,48.168 22.9633333,48.1746977 C23.2816667,48.1813953 23.5966667,48.1889302 23.9091667,48.1947907 C24.2216667,48.2014884 24.5,48.2048372 24.7441667,48.2048372 C25.0025,48.2048372 25.295,48.2014884 25.62,48.1947907 C25.9466667,48.1889302 26.2783333,48.1813953 26.6183333,48.1746977 C26.9583333,48.168 27.28,48.1579535 27.5858333,48.1437209 C27.8916667,48.1303256 28.1525,48.1169302 28.37,48.1026977 L28.37,48.2458605 C27.8808333,48.2868837 27.4808333,48.3488372 27.1683333,48.4308837 C26.8558333,48.512093 26.6083333,48.6209302 26.425,48.7573953 C26.2416667,48.8938605 26.1091667,49.0579535 26.0275,49.2488372 C25.9466667,49.4397209 25.8916667,49.6783256 25.865,49.9654884 C25.8375,50.1965581 25.8241667,50.5373023 25.8241667,50.9877209 L25.8241667,52.3180465 L25.8041667,55.6945116 L25.8241667,58.803907 C25.8241667,59.2409302 25.8275,59.5582326 25.8341667,59.7549767 C25.8408333,59.9525581 25.8508333,60.1610233 25.865,60.3795349 C25.8783333,60.7068837 25.9291667,60.9831628 26.0175,61.2075349 C26.1058333,61.4327442 26.2375,61.6177674 26.4141667,61.7609302 C26.5908333,61.904093 26.8225,62.0129302 27.1066667,62.0874419 C27.3925,62.1627907 27.745,62.208 28.1666667,62.2205581 C28.505,62.2347907 28.835,62.2448372 29.1533333,62.2515349 C29.4725,62.2582326 29.7883333,62.2615814 30.1008333,62.2615814 L30.7733333,62.2615814 C30.9358333,62.2615814 31.0891667,62.2649302 31.2316667,62.2724651 C31.3733333,62.2791628 31.53,62.2791628 31.7,62.2724651 C31.8691667,62.2649302 32.0975,62.2490233 32.3816667,62.2205581 C32.8575,62.1803721 33.2275,62.0464186 33.4916667,61.8220465 C33.7566667,61.5968372 33.8891667,61.2108837 33.8891667,60.6658605 L33.8891667,55.6735814 L33.8891667,54.18 L33.8891667,52.5432558 L33.8891667,51.079814 C33.8891667,50.636093 33.8816667,50.3129302 33.8691667,50.1086512 C33.855,49.7394419 33.7941667,49.4472558 33.6866667,49.2287442 C33.5783333,49.0102326 33.43,48.836093 33.2408333,48.7063256 C33.0516667,48.5773953 32.8116667,48.4777674 32.5216667,48.4099535 C32.2316667,48.3413023 31.8966667,48.280186 31.5191667,48.2257674 L31.5191667,48.1026977 C31.7366667,48.1169302 31.9975,48.1303256 32.305,48.1437209 C32.61,48.1579535 32.9233333,48.168 33.2425,48.1746977 C33.5616667,48.1813953 33.8783333,48.1889302 34.1908333,48.1947907 C34.5033333,48.2014884 34.7825,48.2048372 35.0275,48.2048372 C35.2858333,48.2048372 35.5775,48.2014884 35.905,48.1947907 C36.2308333,48.1889302 36.5633333,48.1813953 36.9033333,48.1746977 C37.2425,48.168 37.565,48.1579535 37.87,48.1437209 C38.1766667,48.1303256 38.4375,48.1169302 38.655,48.1026977 L38.655,48.2458605 C38.1658333,48.2868837 37.765,48.3488372 37.4525,48.4308837 C37.14,48.512093 36.8925,48.6209302 36.71,48.7573953 C36.5266667,48.8938605 36.3941667,49.0579535 36.3125,49.2488372 C36.2316667,49.4397209 36.1766667,49.6783256 36.15,49.9654884 C36.1225,50.1965581 36.1091667,50.5373023 36.1091667,50.9877209 L36.1091667,52.3180465 L36.0891667,55.7556279" id="Fill-2" fill="#000000"></path>
                    <path d="M56.2308333,62.5144186 C56.1758333,62.7103256 56.1108333,62.8467907 56.0366667,62.923814 C55.9616667,63.0008372 55.8291667,63.0393488 55.64,63.0393488 C54.9066667,63.0259535 54.1591667,63.0058605 53.3991667,62.9782326 C52.6383333,62.9506047 51.7558333,62.9372093 50.7516667,62.9372093 C50.1,62.9372093 49.3291667,62.9506047 48.44,62.9782326 C47.5508333,63.0058605 46.6716667,63.0259535 45.8025,63.0393488 L45.8025,62.876093 C46.1825,62.8208372 46.5125,62.7597209 46.79,62.691907 C47.0683333,62.6232558 47.3,62.5244651 47.4825,62.3946977 C47.6658333,62.2649302 47.805,62.0916279 47.9008333,61.8731163 C47.9958333,61.6554419 48.0491667,61.3615814 48.0633333,60.9932093 C48.0766667,60.7068837 48.0833333,60.2665116 48.0833333,59.6729302 L48.0833333,57.7908837 L48.0833333,55.8778605 L48.0833333,54.4663256 L48.0833333,53.4122791 L48.0833333,52.2870698 C48.0833333,51.912 48.08,51.5469767 48.0741667,51.1928372 C48.0666667,50.8378605 48.0566667,50.5172093 48.0425,50.2308837 C48.0291667,49.8625116 47.975,49.5694884 47.88,49.3509767 C47.785,49.1333023 47.6458333,48.9591628 47.4625,48.8293953 C47.2791667,48.6996279 47.045,48.6008372 46.76,48.5330233 C46.475,48.4643721 46.1416667,48.4032558 45.7616667,48.3488372 L45.7616667,48.1847442 C46.0608333,48.2123721 46.4275,48.2324651 46.8616667,48.2458605 C47.2958333,48.260093 47.7441667,48.2734884 48.2058333,48.2868837 C48.6666667,48.3002791 49.115,48.3069767 49.55,48.3069767 L50.6708333,48.3069767 L53.7041667,48.2868837 L54.5908333,48.2868837 C54.8416667,48.2868837 55.0591667,48.2701395 55.2425,48.235814 C55.4258333,48.2014884 55.5783333,48.1437209 55.7008333,48.0616744 C55.8225,47.9804651 55.9308333,47.8573953 56.0258333,47.6941395 L56.1683333,47.7962791 C56.0875,48.1102326 56.0366667,48.4308837 56.0166667,48.7573953 C55.9958333,49.0847442 55.9716667,49.324186 55.945,49.4740465 C55.9308333,49.6247442 55.9183333,49.7913488 55.9041667,49.9746977 C55.89,50.1588837 55.8808333,50.3472558 55.8741667,50.5373023 C55.8666667,50.7290233 55.86,50.9098605 55.8533333,51.079814 C55.8466667,51.2506047 55.8433333,51.3904186 55.8433333,51.4992558 L55.66,51.4992558 C55.5916667,50.7357209 55.3616667,50.1429767 54.9675,49.7193488 C54.5733333,49.2965581 53.97,49.0713488 53.155,49.0437209 L52.0958333,49.0236279 L50.3033333,49.0236279 L50.3033333,54.8757209 L51.0975,54.8757209 C51.4775,54.8757209 51.8716667,54.8690233 52.2791667,54.8556279 C52.7541667,54.8556279 53.27,54.848093 53.8275,54.8346977 C54.0983333,54.8346977 54.3191667,54.8037209 54.4891667,54.7426047 C54.6583333,54.6814884 54.7975,54.5994419 54.9066667,54.4973023 C55.015,54.3951628 55.1033333,54.2712558 55.1708333,54.128093 C55.2391667,53.9849302 55.3066667,53.8183256 55.3741667,53.6274419 C55.4016667,53.6274419 55.4291667,53.6408372 55.4566667,53.6684651 L55.4975,53.7086512 C55.4691667,53.8459535 55.4458333,53.9991628 55.4258333,54.1691163 C55.405,54.339907 55.385,54.5140465 55.3641667,54.6906977 C55.3441667,54.8690233 55.3275,55.0356279 55.3133333,55.1930233 C55.3,55.3495814 55.2933333,55.476 55.2933333,55.5714419 L55.2933333,56.0729302 C55.2933333,56.2562791 55.2958333,56.4371163 55.3033333,56.6146047 C55.31,56.792093 55.3133333,56.9553488 55.3133333,57.1060465 L55.3133333,57.4534884 L55.13,57.4333953 C55.1166667,57.255907 55.0925,57.064186 55.0591667,56.859907 C55.025,56.6556279 54.9566667,56.468093 54.855,56.2973023 C54.7533333,56.1273488 54.6033333,55.9833488 54.4075,55.8669767 C54.2108333,55.7522791 53.9491667,55.6945116 53.6233333,55.6945116 L50.3033333,55.6325581 L50.3033333,57.4066047 L50.3241667,60.2012093 C50.3241667,60.5695814 50.3583333,60.8852093 50.4258333,61.1497674 C50.4941667,61.4151628 50.6116667,61.6328372 50.7816667,61.8027907 C50.9525,61.9735814 51.1858333,62.0949767 51.485,62.1703256 C51.7833333,62.2448372 52.1708333,62.275814 52.6458333,62.2615814 C52.8491667,62.2615814 53.005,62.2582326 53.1141667,62.2515349 C53.2225,62.2448372 53.3241667,62.2381395 53.42,62.2306047 C53.515,62.223907 53.6091667,62.2180465 53.7041667,62.2105116 C53.8,62.203814 53.9358333,62.1870698 54.1125,62.1594419 C54.4108333,62.1184186 54.6858333,62.0539535 54.9366667,61.9652093 C55.1883333,61.8764651 55.4183333,61.7366512 55.6291667,61.5457674 C55.84,61.3548837 56.04,61.0995349 56.2308333,60.7788837 C56.42,60.4582326 56.6033333,60.052186 56.78,59.5615814 L56.9425,59.6427907 L56.2308333,62.5144186" id="Fill-3" fill="#000000"></path>
                    <path d="M80.9233333,62.9983256 C80.6183333,62.9849302 80.2958333,62.9748837 79.9566667,62.9673488 C79.6166667,62.9606512 79.285,62.9539535 78.9583333,62.9472558 C78.6325,62.9405581 78.3408333,62.9372093 78.0825,62.9372093 C77.8383333,62.9372093 77.56,62.9405581 77.2475,62.9472558 C76.935,62.9539535 76.6191667,62.964 76.3008333,62.9782326 C75.9816667,62.9916279 75.67,63.0016744 75.3641667,63.0083721 C75.0583333,63.015907 74.7966667,63.0259535 74.58,63.0393488 L74.58,62.9162791 C74.96,62.8618605 75.2958333,62.8007442 75.5883333,62.7329302 C75.88,62.6642791 76.1208333,62.5654884 76.3108333,62.4357209 C76.5008333,62.3059535 76.65,62.1326512 76.7583333,61.9141395 C76.8675,61.6956279 76.9283333,61.4026047 76.9425,61.0333953 C76.9558333,60.8291163 76.9625,60.511814 76.9625,60.0831628 L76.9625,58.659907 L76.9625,57.064186 L76.9625,55.5714419 L69.0608333,55.5714419 L69.0608333,56.5124651 C69.0608333,57.3170233 69.0641667,57.9893023 69.0708333,58.5276279 C69.0775,59.0667907 69.0808333,59.5130233 69.0808333,59.868 C69.0808333,60.2229767 69.0841667,60.5026047 69.0908333,60.7068837 C69.0983333,60.9111628 69.1083333,61.0677209 69.1216667,61.1773953 C69.1491667,61.4637209 69.2033333,61.7056744 69.285,61.904093 C69.3658333,62.1016744 69.4983333,62.2649302 69.6816667,62.3946977 C69.865,62.5244651 70.1133333,62.6299535 70.425,62.712 C70.7375,62.7940465 71.1375,62.8551628 71.6266667,62.896186 L71.6266667,63.0393488 C71.4091667,63.0259535 71.1483333,63.0125581 70.8433333,62.9983256 C70.5375,62.9849302 70.215,62.9748837 69.8758333,62.9673488 C69.5358333,62.9606512 69.2033333,62.9539535 68.8775,62.9472558 C68.5516667,62.9405581 68.2591667,62.9372093 68.0016667,62.9372093 C67.7575,62.9372093 67.4791667,62.9405581 67.1666667,62.9472558 C66.8541667,62.9539535 66.5383333,62.964 66.22,62.9782326 C65.9,62.9916279 65.5883333,63.0016744 65.2825,63.0083721 C64.9775,63.015907 64.7158333,63.0259535 64.4983333,63.0393488 L64.4983333,62.9162791 C64.8783333,62.8618605 65.215,62.8015814 65.5066667,62.7329302 C65.7983333,62.6651163 66.0391667,62.5654884 66.23,62.4365581 C66.42,62.3076279 66.5691667,62.1343256 66.6783333,61.9166512 C66.7866667,61.6989767 66.8475,61.4067907 66.8608333,61.0384186 C66.8741667,60.7529302 66.8816667,60.3142326 66.8816667,59.7223256 L66.8816667,57.8243721 L66.8816667,55.8962791 L66.8816667,54.4864186 C66.8816667,54.159907 66.8783333,53.8727442 66.8708333,53.6274419 C66.8641667,53.3821395 66.8608333,53.1133953 66.8608333,52.8195349 C66.8608333,52.5256744 66.8583333,52.1782326 66.8508333,51.7755349 C66.8441667,51.3728372 66.8408333,50.8512558 66.8408333,50.2107907 C66.8408333,49.8415814 66.79,49.5493953 66.6875,49.3308837 C66.5858333,49.1123721 66.4333333,48.9382326 66.23,48.8093023 C66.0258333,48.6795349 65.775,48.579907 65.4758333,48.512093 C65.1775,48.4434419 64.8383333,48.3823256 64.4583333,48.327907 L64.4583333,48.2048372 C64.675,48.2048372 64.94,48.2090233 65.2525,48.2157209 C65.565,48.2224186 65.8866667,48.235814 66.22,48.2567442 C66.5516667,48.2768372 66.8741667,48.2944186 67.1866667,48.3069767 C67.4991667,48.3212093 67.7708333,48.327907 68.0016667,48.327907 C68.2733333,48.327907 68.565,48.3253953 68.8775,48.3178605 C69.1891667,48.3111628 69.5016667,48.3002791 69.8141667,48.2868837 C70.1258333,48.2734884 70.4216667,48.260093 70.7,48.2458605 C70.9783333,48.2324651 71.2191667,48.2190698 71.4233333,48.2048372 L71.4233333,48.3488372 C71.0016667,48.3898605 70.6491667,48.4476279 70.3641667,48.5221395 C70.0791667,48.5974884 69.8475,48.703814 69.6716667,48.8394419 C69.4958333,48.975907 69.3625,49.1533953 69.275,49.371907 C69.1858333,49.5895814 69.135,49.8625116 69.1216667,50.1898605 C69.1216667,50.2995349 69.1183333,50.4284651 69.1116667,50.5783256 C69.105,50.7290233 69.0983333,50.919907 69.0908333,51.151814 C69.0841667,51.3837209 69.0775,51.6633488 69.0708333,51.9906977 C69.0641667,52.3180465 69.0608333,52.7207442 69.0608333,53.1979535 L69.0608333,54.8556279 L72.8291667,54.895814 L76.9625,54.8757209 L76.9625,53.6065116 L76.9625,52.6043721 L76.9625,51.7654884 C76.9625,51.5067907 76.9591667,51.2539535 76.9525,51.0086512 C76.9458333,50.7633488 76.935,50.4971163 76.9225,50.2107907 C76.9083333,49.8415814 76.8475,49.5493953 76.7383333,49.3308837 C76.63,49.1123721 76.4775,48.9382326 76.28,48.8093023 C76.0833333,48.6795349 75.8391667,48.579907 75.5466667,48.512093 C75.2558333,48.4434419 74.9191667,48.3823256 74.5391667,48.327907 L74.5391667,48.2048372 C74.7558333,48.2048372 75.0208333,48.2090233 75.3333333,48.2157209 C75.645,48.2224186 75.9675,48.235814 76.3008333,48.2567442 C76.6333333,48.2768372 76.9558333,48.2944186 77.2683333,48.3069767 C77.5808333,48.3212093 77.8516667,48.327907 78.0825,48.327907 C78.3541667,48.327907 78.6458333,48.3253953 78.9583333,48.3178605 C79.2708333,48.3111628 79.5825,48.3002791 79.895,48.2868837 C80.2075,48.2734884 80.5033333,48.260093 80.7808333,48.2458605 C81.0591667,48.2324651 81.3008333,48.2190698 81.5041667,48.2048372 L81.5041667,48.3488372 C81.0833333,48.3898605 80.7308333,48.4476279 80.445,48.5221395 C80.16,48.5974884 79.9258333,48.703814 79.7425,48.8394419 C79.56,48.975907 79.4241667,49.1533953 79.335,49.371907 C79.2475,49.5895814 79.1958333,49.8625116 79.1833333,50.1898605 C79.1691667,50.4226047 79.1583333,50.7013953 79.1516667,51.0287442 C79.145,51.356093 79.1425,51.7386977 79.1425,52.1740465 L79.1425,55.8343256 L79.1625,58.8340465 L79.1625,60.1610233 C79.1625,60.6106047 79.1758333,60.9505116 79.2033333,61.1815814 C79.23,61.467907 79.285,61.7090233 79.3658333,61.9057674 C79.4475,62.104186 79.58,62.2666047 79.7633333,62.3955349 C79.9466667,62.5253023 80.1933333,62.6307907 80.5058333,62.712 C80.8183333,62.7940465 81.2191667,62.8551628 81.7083333,62.896186 L81.7083333,63.0393488 C81.4908333,63.0259535 81.23,63.0125581 80.9233333,62.9983256" id="Fill-4" fill="#000000"></path>
                    <path d="M95.8016667,51.3150698 C95.7875,51.2882791 95.7741667,51.2472558 95.7608333,51.1928372 C95.7466667,51.1384186 95.7266667,51.1107907 95.6991667,51.1107907 C95.6583333,51.1107907 95.6383333,51.1384186 95.6383333,51.1928372 L93.6016667,56.5735814 L95.6583333,56.6346977 L97.9191667,56.5735814 L95.8016667,51.3150698 L95.8016667,51.3150698 Z M104.62,63.0393488 C104.348333,63.0259535 104.049167,63.0058605 103.724167,62.9782326 C103.4525,62.9506047 103.14,62.9305116 102.786667,62.9162791 C102.433333,62.9028837 102.060833,62.896186 101.666667,62.896186 C101.354167,62.896186 101.025,62.9028837 100.678333,62.9162791 C100.3325,62.9305116 99.9966667,62.9472558 99.67,62.9673488 C99.345,62.9874419 99.04,63.0058605 98.7541667,63.0192558 C98.4691667,63.0326512 98.225,63.0393488 98.0208333,63.0393488 L98.0208333,62.896186 C98.7541667,62.7865116 99.2325,62.5964651 99.4575,62.3226977 C99.6808333,62.0506047 99.6775,61.580093 99.4466667,60.9111628 C99.3241667,60.5980465 99.1916667,60.2355349 99.0491667,59.8269767 C98.9066667,59.4175814 98.7675,59.0291163 98.6316667,58.659907 C98.4825,58.2245581 98.3266667,57.7875349 98.1641667,57.3513488 L95.7191667,57.3103256 L93.3783333,57.3513488 C93.1741667,57.883814 92.9908333,58.3744186 92.8283333,58.8248372 C92.6783333,59.2066047 92.5425,59.5674419 92.42,59.9090233 C92.2983333,60.2497674 92.2233333,60.4749767 92.1966667,60.583814 C92.1283333,60.8023256 92.0641667,61.0133023 92.0025,61.2184186 C91.9416667,61.4226977 91.9116667,61.5934884 91.9116667,61.7291163 C91.9116667,61.9350698 91.9591667,62.1083721 92.0541667,62.2515349 C92.1483333,62.3946977 92.2716667,62.5110698 92.42,62.599814 C92.57,62.6885581 92.7358333,62.7563721 92.9191667,62.804093 C93.1033333,62.851814 93.2825,62.8819535 93.4591667,62.896186 L93.4591667,63.0393488 L90.73,62.896186 C90.7033333,62.896186 90.5675,62.9028837 90.3233333,62.9162791 C90.0783333,62.9305116 89.7966667,62.9472558 89.4775,62.9673488 C89.1583333,62.9874419 88.8491667,63.0058605 88.5508333,63.0192558 C88.2516667,63.0326512 88.035,63.0393488 87.8991667,63.0393488 L87.8991667,62.896186 C88.3475,62.8141395 88.7208333,62.712 89.0191667,62.5889302 C89.3183333,62.4658605 89.5758333,62.3059535 89.7933333,62.1083721 C90.0108333,61.9107907 90.2008333,61.6613023 90.3641667,61.3615814 C90.5266667,61.0618605 90.6958333,60.6934884 90.8725,60.2564651 C90.9541667,60.052186 91.09,59.7139535 91.28,59.2442791 C91.47,58.7729302 91.6975,58.2203721 91.9616667,57.5866047 C92.2275,56.952 92.5125,56.263814 92.8175,55.5203721 C93.1233333,54.7769302 93.4316667,54.0293023 93.7441667,53.28 C94.4633333,51.5335814 95.2583333,49.6105116 96.1275,47.5091163 L96.29,47.5091163 L101.686667,60.3385116 C101.971667,61.0333953 102.348333,61.6177674 102.8175,62.0874419 C103.285833,62.5587907 103.886667,62.8283721 104.62,62.896186 L104.62,63.0393488 L104.62,63.0393488 Z" id="Fill-5" fill="#000000"></path>
                    <path d="M61.1466667,37.6250233 C61.2875,36.8589767 61.4083333,36.092093 61.4775,35.3185116 C61.2975,35.4700465 61.1116667,35.6148837 60.9208333,35.7496744 C60.1883333,36.2645581 59.3941667,36.6513488 58.54,36.9092093 C57.6833333,37.1662326 56.805,37.296 55.9016667,37.296 C54.5333333,37.296 53.16,36.9828837 51.7791667,36.355814 C50.4,35.727907 49.1425,34.8186977 48.0058333,33.6273488 C46.87,32.436 45.9475,30.9859535 45.2391667,29.2780465 C44.5308333,27.5693023 44.1775,25.6219535 44.1775,23.4343256 C44.1775,21.8369302 44.4266667,20.3324651 44.9291667,18.9192558 C45.4283333,17.5068837 46.1425,16.272 47.0725,15.2154419 C47.9991667,14.1572093 49.1058333,13.3225116 50.3866667,12.7088372 C51.6691667,12.0934884 53.1041667,11.7862326 54.6925,11.7862326 C55.84,11.7862326 56.9091667,11.9402791 57.8991667,12.2475349 C58.8866667,12.5531163 59.7608333,12.9826047 60.5183333,13.536 C61.2741667,14.0868837 61.9158333,14.7373953 62.4416667,15.4858605 C62.9658333,16.2351628 63.3391667,17.0489302 63.5591667,17.9330233 L63.9991667,17.860186 L62.8633333,11.8967442 C62.0816667,11.5853023 61.2941667,11.34 60.5008333,11.1616744 C59.705,10.9833488 58.9483333,10.8452093 58.2283333,10.7514419 C57.5075,10.656 56.8591667,10.6007442 56.2866667,10.5890233 C55.7116667,10.5781395 55.2658333,10.5714419 54.9483333,10.5714419 C53.1175,10.5714419 51.2666667,10.8786977 49.3983333,11.4932093 C47.5291667,12.1060465 45.8441667,12.9951628 44.3416667,14.1605581 C42.84,15.3276279 41.6133333,16.755907 40.66,18.447907 C39.7066667,20.1432558 39.2308333,22.0813953 39.2308333,24.2648372 C39.2308333,26.6207442 39.6758333,28.6827907 40.5691667,30.4484651 C41.4591667,32.2149767 42.6625,33.6876279 44.1775,34.8664186 C45.6916667,36.0443721 47.4325,36.9267907 49.3983333,37.5170233 C51.365,38.1047442 53.4333333,38.3986047 55.6083333,38.3986047 C55.7558333,38.3986047 56.0966667,38.3877209 56.6333333,38.3617674 C57.1708333,38.3383256 57.8008333,38.288093 58.5208333,38.2144186 C59.2416667,38.1415814 59.9866667,38.0310698 60.7566667,37.8837209 C60.84,37.867814 60.9116667,37.8426977 60.9925,37.8259535 C61.0466667,37.7606512 61.0933333,37.6911628 61.1466667,37.6250233" id="Fill-6" fill="#000000"></path>
                    <path d="M51.0175,17.8174884 C50.695,17.4775814 50.7441667,16.8186977 51.1358333,16.4863256 C51.9525,15.7964651 53.9183333,13.1768372 54.0641667,12.1604651 C54.1591667,11.4856744 54.1216667,11.2127442 54.0975,10.5697674 C54.0725,9.94604651 53.8575,9.70660465 53.9533333,9.04353488 C54.0991667,8.02716279 54.3816667,6.90446512 54.6708333,5.91404651 C54.7916667,5.50381395 56.1408333,1.43246512 56.3691667,1.02055814 L56.7391667,0.457953488 C57.1991667,1.46427907 55.9183333,5.5532093 59.2516667,10.6057674 C60.1275,11.9377674 60.9616667,13.2806512 61.865,14.5984186 C62.7816667,15.9362791 63.5775,17.2783256 64.4491667,18.6136744 C67.8783333,23.8738605 68.1625,28.5253953 65.2775,33.927907 C64.7375,34.9350698 63.2316667,37.2298605 62.2458333,37.7556279 C62.2833333,37.2524651 62.7891667,35.4189767 62.8866667,34.2125581 C62.9916667,32.9408372 62.9791667,32.1421395 62.6633333,30.9223256 C61.5858333,26.7605581 57.8125,29.7477209 54.0725,28.7187907 C52.9675,28.4106977 52.62,27.4772093 52.5908333,26.4457674 C52.575,25.8714419 52.8683333,24.9948837 52.8166667,24.6541395 C52.7416667,24.1534884 52.2166667,23.9282791 51.88,23.6344186 C51.4408333,23.2501395 51.7766667,22.6272558 51.9508333,22.1927442 L51.5108333,20.9411163 C51.6458333,20.576093 52.0433333,20.232 52.2516667,19.8753488 C53.045,18.5249302 51.2416667,18.051907 51.0175,17.8174884" id="Fill-19" fill="#C8AB46"></path>
                </g>
            </g>
        </g>
    </g>
</svg>