<?xml version="1.0" encoding="UTF-8" standalone="no"?>
<svg width="58px" height="70px" viewBox="0 0 58 70" version="1.1" xmlns="http://www.w3.org/2000/svg" xmlns:xlink="http://www.w3.org/1999/xlink" xmlns:sketch="http://www.bohemiancoding.com/sketch/ns">
    <!-- Generator: Sketch 3.4.4 (17249) - http://www.bohemiancoding.com/sketch -->
    <title>Shape</title>
    <desc>Created with Sketch.</desc>
    <defs></defs>
    <g id="Page-1" stroke="none" stroke-width="1" fill="none" fill-rule="evenodd" sketch:type="MSPage">
        <g id="marker" sketch:type="MSLayerGroup" fill="#FF6BA0">
            <path d="M49.1605119,8.582031 C38.0558133,-2.15130233 19.9710186,-2.15130233 8.86632008,8.582031 C0.855073289,16.3253643 -1.36586642,27.442031 2.04486242,37.102031 C9.42155501,57.7253643 29.013416,69.532031 29.013416,69.532031 C29.013416,69.532031 48.3673191,57.802031 55.823331,37.4086977 C55.823331,37.332031 55.9026503,37.2553643 55.9026503,37.1786977 C55.9026503,37.1786977 55.9026503,37.1786977 55.9026503,37.102031 L55.9026503,37.102031 C59.3926984,27.442031 57.1717587,16.3253643 49.1605119,8.582031 L49.1605119,8.582031 L49.1605119,8.582031 Z M35.0416809,35.722031 C31.7102713,38.942031 26.2372413,38.942031 22.9058318,35.722031 C19.5744222,32.502031 19.5744222,27.212031 22.9058318,23.992031 C26.2372413,20.772031 31.7102713,20.772031 35.0416809,23.992031 C38.4524097,27.212031 38.4524097,32.502031 35.0416809,35.722031 L35.0416809,35.722031 L35.0416809,35.722031 Z" id="Shape" sketch:type="MSShapeGroup"></path>
        </g>
    </g>
</svg>